<svg width="33" height="23" viewBox="0 0 33 23" fill="none" xmlns="http://www.w3.org/2000/svg">
<path d="M32.34 11.5702C32.4 7.10019 30.42 3.91019 26.47 1.96019C23.27 0.390187 19.8 0.000186136 16.28 0.000186136C12.76 -0.00981386 9.30004 0.380185 6.07004 1.88019C2.06004 3.74019 0.0100385 6.93018 3.84583e-05 11.3602C-0.00996154 15.7902 1.93004 19.1602 6.01004 20.8502C12.75 23.6402 19.66 23.6402 26.39 20.8402C30.33 19.2002 32.29 15.9402 32.34 11.5702ZM16.22 19.1502C13.4 19.0302 10.65 18.9702 8.06004 17.8602C4.97004 16.5302 3.69004 14.5802 3.66004 11.3102C3.62004 8.14019 5.19004 6.00019 8.02004 5.00019C13.45 3.08019 18.99 3.08018 24.41 5.02018C27.24 6.03018 28.74 8.23019 28.74 11.3802C28.74 14.5002 27.26 16.5602 24.47 17.8002C21.8 18.9902 18.97 19.0302 16.22 19.1502Z" fill="#24426E"/>
<path d="M11 9.2453C9.62 9.2953 8.67 10.0953 8.64 11.6253C8.61 13.2653 9.57 14.0053 11.24 14.2853C12.5 13.9553 13.63 13.2753 13.59 11.6753C13.55 10.1053 12.53 9.1853 11 9.2453Z" fill="#24426E"/>
<path d="M23 9L19.8586 10.9634C19.5073 11.1829 19.5601 11.71 19.9481 11.8555L23 13" stroke="#24426E" stroke-width="1.5" stroke-linecap="round"/>
</svg>
