<svg width="124" height="124" viewBox="0 0 124 124" fill="none" xmlns="http://www.w3.org/2000/svg">
<circle cx="62" cy="62" r="62" fill="#E6F2F6"/>
<g clip-path="url(#clip0_13_21)">
<path d="M101.86 59.09C99.64 57 98.2 54.83 97.21 52.06C96.7 50.65 96.83 50.16 98.19 49.45C102.55 47.19 104.52 42.64 103.12 38.09C102.09 34.75 100.9 31.46 99.6 28.22C97.72 23.55 93.19 21.81 88.51 23.84C84.52 25.58 81.26 28.25 78.88 31.9C78.02 33.22 77.25 33.45 75.67 33.14C66.68 31.36 57.64 31.32 48.65 33.19C47.25 33.48 46.58 33.29 45.83 32.13C43.41 28.41 40.14 25.63 36.06 23.86C31.17 21.74 26.64 23.67 24.78 28.66C23.85 31.15 22.96 33.66 22.07 36.17C19.88 42.35 21.11 45.99 26.56 49.55C27.01 49.85 28.03 50.03 27.76 50.6C26.72 52.81 26.86 55.67 24.75 57.26C17.52 62.72 15.87 70.14 17.64 78.42C19.38 86.53 24.46 91.76 32.78 93.51C47.4 96.59 62.16 96.99 77 95.72C78.4 95.6 80.18 95.62 79.91 93.56C79.64 91.56 77.89 91.94 76.51 92.1C71.78 92.63 67.04 92.76 62.29 92.82C56.78 92.84 51.29 92.54 45.83 91.9C42.11 91.46 38.41 90.88 34.73 90.2C24.4 88.24 18.82 79.62 21.14 69.29C21.95 65.7 23.32 62.37 26.66 60.46C28.45 59.44 29.16 58.06 29.72 56.23C32.84 46.16 39.54 39.68 49.65 36.68C55.12 35.06 60.73 35.63 66.29 35.62C80.58 35.58 91.36 43.74 95.24 57.44C95.53 58.47 95.88 59.31 96.86 59.79C100.36 61.5 102.09 64.56 103.15 68.09C105.62 76.33 102.24 88.45 89.8 90.21C88.73 90.36 87.67 90.61 86.61 90.81C85.49 91.02 84.73 91.59 84.9 92.83C85.09 94.21 86.09 94.57 87.29 94.36C89.26 94.03 91.25 93.73 93.16 93.2C100.37 91.18 104.98 86.38 106.71 79.21C108.49 71.8 107.71 64.59 101.86 59.09ZM42.08 35.77C37.53 38.18 33.68 41.45 30.8 45.74C29.97 46.97 29.13 46.86 28.07 46.34C26.01 45.34 24.7 43.24 24.67 40.25C25.61 36.63 26.94 32.43 28.92 28.52C29.84 26.7 31.83 26.08 33.91 26.89C37.49 28.29 40.33 30.62 42.58 33.74C43.33 34.76 43.16 35.19 42.08 35.77ZM93.31 45.04C90.48 41.25 87.03 38.14 82.82 36C81.17 35.16 81.28 34.53 82.26 33.28C84.31 30.68 86.77 28.62 89.76 27.22C92.73 25.83 95.29 26.81 96.37 29.88C97.66 33.55 99.29 37.12 99.92 40.6C99.83 42.87 99.06 44.39 97.66 45.57C95.7 47.23 94.86 47.11 93.31 45.04Z" fill="#24426E"/>
<path d="M89 58.19C89.19 59.41 89.85 60.25 91.22 59.95C92.61 59.64 92.64 58.51 92.53 57.37C92.22 54.13 89.16 51.48 85.8 51.55C82.52 51.62 79.62 54.19 79.27 57.34C79.14 58.5 79.23 59.61 80.57 59.94C81.91 60.27 82.62 59.48 82.81 58.24C83.08 56.43 84.06 55.24 85.89 55.23C87.71 55.21 88.71 56.37 89 58.19Z" fill="#24426E"/>
<path d="M31.96 57.61C31.9 58.69 32.1 59.69 33.31 59.95C34.62 60.24 35.38 59.5 35.55 58.25C35.8 56.44 36.78 55.25 38.59 55.23C40.53 55.21 41.56 56.47 41.8 58.37C41.96 59.6 42.68 60.14 43.86 59.97C45.11 59.79 45.34 58.82 45.38 57.94C45.26 54.5 42.15 51.6 38.72 51.56C35.31 51.5 32.13 54.36 31.96 57.61Z" fill="#24426E"/>
<path d="M66.03 79.83C62.87 82.11 61.82 82.09 58.48 79.8C57.56 79.17 56.68 78.85 55.82 79.76C54.85 80.78 55.3 81.73 56.16 82.58C57.83 84.23 59.85 85.08 62.2 85.14C64.52 85.16 67.03 84.1 68.47 82.53C69.2 81.74 69.73 80.88 68.88 79.91C68 78.91 67.08 79.08 66.03 79.83Z" fill="#24426E"/>
<path d="M78.44 64.65C78.5 60.18 76.52 56.99 72.57 55.04C69.37 53.47 65.9 53.08 62.38 53.08C58.86 53.07 55.4 53.46 52.17 54.96C48.16 56.82 46.11 60.01 46.1 64.44C46.09 68.87 48.03 72.24 52.11 73.93C58.85 76.72 65.76 76.72 72.49 73.92C76.43 72.28 78.39 69.02 78.44 64.65ZM62.32 72.23C59.5 72.11 56.75 72.05 54.16 70.94C51.07 69.61 49.79 67.66 49.76 64.39C49.72 61.22 51.29 59.08 54.12 58.08C59.55 56.16 65.09 56.16 70.51 58.1C73.34 59.11 74.84 61.31 74.84 64.46C74.84 67.58 73.36 69.64 70.57 70.88C67.9 72.07 65.07 72.11 62.32 72.23Z" fill="#24426E"/>
<path d="M55.66 62.02C54.28 62.07 53.33 62.87 53.3 64.4C53.27 66.04 54.23 66.78 55.9 67.06C57.16 66.73 58.29 66.05 58.25 64.45C58.21 62.88 57.19 61.96 55.66 62.02Z" fill="#24426E"/>
<path d="M68.74 62.01C67.31 62.05 66.38 62.93 66.34 64.38C66.3 65.94 67.22 66.93 68.77 66.97C70.36 67.02 71.14 65.99 71.35 64.39C71.12 62.96 70.33 61.96 68.74 62.01Z" fill="#24426E"/>
</g>
<defs>
<clipPath id="clip0_13_21">
<rect width="90.55" height="73.39" fill="white" transform="translate(17 23)"/>
</clipPath>
</defs>
</svg>
